<?xml version="1.0" encoding="UTF-8" standalone="no"?><!DOCTYPE svg PUBLIC "-//W3C//DTD SVG 1.1//EN" "http://www.w3.org/Graphics/SVG/1.1/DTD/svg11.dtd"><svg width="100%" height="100%" viewBox="0 0 421 167" version="1.1" xmlns="http://www.w3.org/2000/svg" xmlns:xlink="http://www.w3.org/1999/xlink" xml:space="preserve" xmlns:serif="http://www.serif.com/" style="fill-rule:evenodd;clip-rule:evenodd;stroke-linejoin:round;stroke-miterlimit:2;"><path id="path22" d="M160.215,37.76c-12.864,-15.005 -31.94,-24.538 -53.211,-24.538c-34.06,0 -62.515,24.418 -68.803,56.669c9.082,-28.271 35.618,-48.797 66.871,-48.797c31.963,0 59.412,22.148 67.877,51.421l3.219,0.112c-1.56,-9.411 -4.973,-18.2 -9.855,-25.984c-1.809,-3.12 -3.853,-6.083 -6.098,-8.883" style="fill:#bec1c2;fill-rule:nonzero;"/><path id="path26" d="M104.191,10.828c22.671,0 42.868,10.521 56.024,26.932c2.273,2.651 4.355,5.469 6.219,8.44c4.492,7.737 8.445,17.188 9.733,26.428l21.357,0c-5.197,-40.956 -40.14,-72.628 -82.508,-72.628c-41.518,0 -75.916,30.419 -82.166,70.183l0.644,0c5.896,-33.716 35.29,-59.355 70.697,-59.355" style="fill:#1b458f;fill-rule:nonzero;"/><path id="path30" d="M175.188,95.961l-0.45,0c-6.25,33.288 -35.45,58.478 -70.547,58.478c-34.787,0 -63.789,-24.74 -70.388,-57.59l-0.828,0c6.516,39.457 40.745,69.556 82.041,69.556c41.612,0 76.087,-30.547 82.227,-70.444l-21.091,0l-0.964,0Z" style="fill:#1b458f;fill-rule:nonzero;"/><path id="path34" d="M160.215,37.76c2.245,2.8 4.289,5.763 6.098,8.883c4.882,7.784 8.295,16.573 9.855,25.984c-1.289,-9.239 -5.243,-18.689 -9.735,-26.427c-1.862,-2.97 -3.945,-5.789 -6.218,-8.44" style="fill:#176fc1;fill-rule:nonzero;"/><path id="path38" d="M120.635,92.76l0,-17.88l9.008,0l0,2.75l-5.379,0l0,4.581l5.14,0l0,2.749l-5.14,0l0,7.8l-3.629,0Z" style="fill:#1b458f;fill-rule:nonzero;"/><path id="path42" d="M137.306,86.148c0,-2.598 -0.12,-3.912 -1.56,-3.912c-1.444,0 -1.563,1.314 -1.563,3.912c0,3.818 0.312,4.634 1.563,4.634c1.249,0 1.56,-0.816 1.56,-4.634m-6.51,0.2c0,-3.418 0.482,-6.34 4.95,-6.34c4.466,0 4.948,2.922 4.948,6.34c0,3.912 -0.578,6.662 -4.948,6.662c-4.372,0 -4.95,-2.75 -4.95,-6.662" style="fill:#1b458f;fill-rule:nonzero;"/><path id="path46" d="M148.909,91.5l-0.047,0c-0.676,1.112 -1.587,1.511 -2.859,1.511c-1.612,0 -3.028,-0.99 -3.028,-2.724l0,-10.032l3.39,0l0,8.666c0,1.118 0.189,1.934 1.27,1.934c1.082,0 1.274,-0.816 1.274,-1.934l0,-8.666l3.386,0l0,10.032c0,0.817 0.048,1.658 0.122,2.473l-3.508,0l0,-1.26Z" style="fill:#1b458f;fill-rule:nonzero;"/><path id="path50" d="M158.254,81.518l0.048,0c0.337,-0.568 0.744,-0.943 1.201,-1.164c0.48,-0.248 1.033,-0.347 1.659,-0.347c1.606,0 3.024,0.992 3.024,2.724l0,10.03l-3.387,0l0,-8.618c0,-1.114 -0.191,-1.982 -1.273,-1.982c-1.08,0 -1.272,0.868 -1.272,1.982l0,8.618l-3.387,0l0,-12.506l3.387,0l0,1.263Z" style="fill:#1b458f;fill-rule:nonzero;"/><path id="path54" d="M172.643,86.398c0,-2.502 0.024,-4.237 -1.371,-4.237c-1.464,0 -1.44,1.735 -1.44,4.237c0,3.146 0.216,4.456 1.44,4.456c1.155,0 1.371,-1.31 1.371,-4.456m0.168,6.362l0,-1.383l-0.047,0c-0.626,1.212 -1.562,1.633 -2.86,1.633c-3.508,0 -3.389,-4.013 -3.389,-6.588c0,-2.526 -0.093,-6.414 3.317,-6.414c1.227,0 2.067,0.372 2.763,1.437l0.048,0l0,-6.565l3.385,0l0,17.88l-3.217,0Z" style="fill:#1b458f;fill-rule:nonzero;"/><path id="path58" d="M181.603,88.872c0,0.894 0.145,1.982 1.249,1.982c1.995,0 1.683,-2.771 1.683,-4.132c-1.683,0.072 -2.932,-0.079 -2.932,2.15m6.248,1.563c0,0.768 0.094,1.56 0.168,2.325l-3.15,0l-0.144,-1.656l-0.046,0c-0.723,1.29 -1.707,1.907 -3.171,1.907c-2.355,0 -3.22,-1.808 -3.22,-3.988c0,-4.135 3.1,-4.309 6.247,-4.263l0,-0.964c0,-1.064 -0.146,-1.833 -1.37,-1.833c-1.178,0 -1.273,0.917 -1.273,1.909l-3.315,0c0,-1.51 0.456,-2.476 1.25,-3.046c0.768,-0.594 1.87,-0.818 3.17,-0.818c4.3,0 4.854,1.906 4.854,4.184l0,6.243Z" style="fill:#1b458f;fill-rule:nonzero;"/><path id="path62" d="M189.169,80.255l1.371,0l0,-1.981l3.385,-1.56l0,3.541l1.756,0l0,2.153l-1.756,0l0,6.691c0,0.94 -0.024,1.557 1.084,1.557c0.215,0 0.432,0 0.6,-0.049l0,2.153c-0.457,0.052 -0.939,0.128 -1.756,0.128c-2.929,0 -3.313,-2.008 -3.313,-2.776l0,-7.704l-1.371,0l0,-2.153Z" style="fill:#1b458f;fill-rule:nonzero;"/><path id="path64" d="M200.773,92.76l-3.387,0l0,-12.505l3.387,0l0,12.505Zm0,-15.13l-3.387,0l0,-2.751l3.387,0l0,2.751Z" style="fill:#1b458f;fill-rule:nonzero;"/><path id="path68" d="M209.877,86.148c0,-2.598 -0.121,-3.912 -1.561,-3.912c-1.441,0 -1.56,1.314 -1.56,3.912c0,3.818 0.311,4.634 1.56,4.634c1.252,0 1.561,-0.816 1.561,-4.634m-6.51,0.2c0,-3.418 0.48,-6.34 4.949,-6.34c4.468,0 4.948,2.922 4.948,6.34c0,3.912 -0.576,6.662 -4.948,6.662c-4.371,0 -4.949,-2.75 -4.949,-6.662" style="fill:#1b458f;fill-rule:nonzero;"/><path id="path72" d="M218.932,81.518l0.051,0c0.334,-0.568 0.744,-0.943 1.2,-1.164c0.481,-0.248 1.033,-0.347 1.66,-0.347c1.608,0 3.024,0.992 3.024,2.724l0,10.03l-3.386,0l0,-8.618c0,-1.114 -0.194,-1.982 -1.274,-1.982c-1.08,0 -1.275,0.868 -1.275,1.982l0,8.618l-3.385,0l0,-12.506l3.385,0l0,1.263Z" style="fill:#1b458f;fill-rule:nonzero;"/><path id="path76" d="M2.208,87.445l0,0.524c0,2.443 1.499,3.214 2.924,3.214c1.767,0 3.12,-0.771 3.12,-2.915c0,-3.989 -7.833,-3.541 -7.833,-8.948c0,-3.189 2.201,-4.885 5.125,-4.885c3.192,0 4.979,1.596 4.836,5.258l-2.321,0c0.024,-1.969 -0.58,-3.264 -2.684,-3.264c-1.33,0 -2.683,0.696 -2.683,2.642c0,3.962 7.831,3.388 7.831,9.096c0,3.789 -2.536,5.01 -5.414,5.01c-5.149,0.05 -5.149,-4.013 -5.101,-5.732l2.2,0Z" style="fill:#94989a;fill-rule:nonzero;"/><path id="path80" d="M18.406,84.255c0.047,-2.071 -0.943,-2.617 -1.693,-2.617c-1.523,0 -2.562,0.748 -2.562,4.188c0,4.085 0.507,5.557 2.562,5.557c0.458,0 1.836,-0.5 1.765,-2.768l2.079,0c0.073,3.541 -2.491,4.437 -3.844,4.437c-2.587,0 -4.642,-0.797 -4.642,-6.354c0,-3.691 0.411,-6.73 4.642,-6.73c2.442,0 3.868,1.47 3.748,4.287l-2.055,0Z" style="fill:#94989a;fill-rule:nonzero;"/><path id="path84" d="M29.041,92.802l0,-8.524c0,-1.544 -0.481,-2.64 -2.174,-2.64c-1.983,0 -2.491,1.643 -2.491,3.763l0,7.401l-1.983,0l0,-17.995l1.983,0l0,7.028l0.097,0c0.798,-1.468 1.716,-1.866 3.312,-1.866c2.079,0 3.239,1.07 3.239,3.912l0,8.921l-1.983,0Z" style="fill:#94989a;fill-rule:nonzero;"/><rect id="path86" x="32.97" y="74.807" width="1.981" height="17.995" style="fill:#94989a;fill-rule:nonzero;"/><path id="path90" d="M43.22,80.216l1.981,0l0,9.969c0,0.872 0.048,1.744 0.121,2.616l-2.102,0l0,-1.517l-0.074,0c-0.653,1.145 -1.812,1.768 -3.093,1.768c-2.128,0 -3.289,-1.096 -3.289,-3.24l0,-9.596l1.984,0l0,8.724c0,1.521 0.674,2.541 2.078,2.541c1.063,0 2.394,-0.822 2.394,-2.916l0,-8.349Z" style="fill:#94989a;fill-rule:nonzero;"/><path id="path94" d="M53.082,92.802l0,-8.721c0,-1.271 -0.339,-2.443 -1.934,-2.443c-0.604,0 -1.426,0.372 -1.716,0.847c-0.364,0.624 -0.46,1.372 -0.46,1.844l0,8.473l-1.981,0l0,-9.969c0,-0.872 -0.049,-1.744 -0.121,-2.616l2.102,0l0,1.569l0.048,0c0.582,-1.345 1.622,-1.817 3.046,-1.817c1.112,0 2.393,0.472 2.853,1.617c0.679,-1.344 1.791,-1.617 2.903,-1.617c1.281,0 3.336,0.297 3.336,3.262l0,9.571l-1.984,0l0,-8.721c0,-1.271 -0.339,-2.443 -1.934,-2.443c-0.749,0 -0.965,0.024 -1.498,0.473c-0.58,0.498 -0.678,1.746 -0.678,2.218l0,8.473l-1.982,0Z" style="fill:#94989a;fill-rule:nonzero;"/><path id="path98" d="M67.224,91.383c2.49,0 2.49,-2.743 2.49,-4.636c0,-3.364 -0.29,-5.11 -2.417,-5.11c-2.2,0 -2.296,2.691 -2.296,4.363c0,1.916 -0.219,5.383 2.223,5.383m-2.223,1.418l-1.983,0l0,-17.994l1.983,0l0,6.682l0.072,0c0.676,-0.997 1.521,-1.521 2.683,-1.521c3.94,0 4.037,3.612 4.037,6.753c0,5.534 -1.983,6.331 -3.94,6.331c-1.281,0 -2.128,-0.573 -2.805,-1.745l-0.047,0l0,1.494Z" style="fill:#94989a;fill-rule:nonzero;"/><path id="path102" d="M79.941,85.625c0,-3.664 -0.992,-4.112 -2.443,-4.112c-1.257,0 -2.297,0.623 -2.32,4.112l4.763,0Zm-4.763,1.544c0,3.516 0.918,4.213 2.466,4.213c1.353,0 2.054,-1.121 2.126,-2.393l2.176,0c-0.024,2.792 -1.693,4.063 -4.254,4.063c-2.587,0 -4.642,-0.796 -4.642,-6.354c0,-3.69 0.412,-6.729 4.642,-6.729c3.481,0 4.35,1.968 4.35,6.129l0,1.071l-6.864,0Z" style="fill:#94989a;fill-rule:nonzero;"/><path id="path106" d="M85.694,82.112l0.048,0c0.821,-1.919 1.837,-2.143 3.772,-2.143l0,2.116c-0.17,-0.022 -0.363,-0.049 -0.532,-0.074c-0.17,-0.024 -0.339,-0.05 -0.534,-0.05c-2.198,0 -2.754,1.722 -2.754,3.416l0,7.426l-1.982,0l0,-12.587l1.982,0l0,1.896Z" style="fill:#94989a;fill-rule:nonzero;"/><path id="path110" d="M94.13,81.661c-2.248,0 -2.32,2.792 -2.32,4.464c0,4.036 0.895,4.982 2.368,4.982c2.393,0 2.321,-2.915 2.321,-4.659c0,-1.869 0.122,-4.787 -2.369,-4.787m2.321,-1.445l1.983,0l0,13.857c0,2.818 -1.813,3.49 -4.497,3.49c-2.03,0 -3.868,-1.047 -3.699,-3.366l2.224,0c0.025,1.172 0.773,1.822 1.863,1.822c1.377,0 2.126,-0.874 2.126,-2.17l0,-2.617l-0.072,0c-0.508,0.997 -1.62,1.569 -2.684,1.569c-3.312,0 -3.965,-2.94 -3.965,-6.676c0,-5.784 2.828,-6.157 3.82,-6.157c1.281,0 2.297,0.573 2.852,1.792l0.049,0l0,-1.544Z" style="fill:#94989a;fill-rule:nonzero;"/><path id="path114" d="M107.088,85.625c0,-3.664 -0.99,-4.112 -2.441,-4.112c-1.257,0 -2.297,0.623 -2.32,4.112l4.761,0Zm-4.761,1.544c0,3.516 0.917,4.213 2.464,4.213c1.353,0 2.056,-1.121 2.128,-2.393l2.175,0c-0.023,2.792 -1.692,4.063 -4.255,4.063c-2.585,0 -4.64,-0.796 -4.64,-6.354c0,-3.69 0.411,-6.729 4.64,-6.729c3.483,0 4.352,1.968 4.352,6.129l0,1.071l-6.864,0Z" style="fill:#94989a;fill-rule:nonzero;"/><path id="path118" d="M112.842,82.112l0.048,0c0.822,-1.919 1.838,-2.143 3.771,-2.143l0,2.116c-0.168,-0.022 -0.363,-0.049 -0.531,-0.074c-0.169,-0.024 -0.338,-0.05 -0.533,-0.05c-2.2,0 -2.755,1.722 -2.755,3.416l0,7.426l-1.982,0l0,-12.587l1.982,0l0,1.896Z" style="fill:#94989a;fill-rule:nonzero;"/><path id="path122" d="M233.426,92.437l0,-17.333l8.594,0l0,1.921l-6.385,0l0,5.571l6.049,0l0,1.92l-6.049,0l0,7.921l-2.209,0Z" style="fill:#1b458f;fill-rule:nonzero;"/><path id="path126" d="M245.091,88.836c0,1.177 0.577,2.235 1.897,2.235c1.2,0 2.688,-0.746 2.496,-4.659c-1.872,0.025 -4.393,-0.144 -4.393,2.424m4.441,1.849l-0.048,0c-0.6,1.394 -1.536,1.992 -3.048,1.992c-2.569,0 -3.314,-1.656 -3.314,-3.984c0,-3.672 3.602,-3.841 6.362,-3.769c0.048,-1.609 0.074,-3.361 -2.04,-3.361c-1.321,0 -2.017,0.888 -1.896,2.161l-2.137,0c0.096,-2.713 1.537,-3.648 4.104,-3.648c3.121,0 3.937,1.607 3.937,3.648l0,5.833c0,0.962 0.098,1.946 0.242,2.88l-2.162,0l0,-1.752Z" style="fill:#1b458f;fill-rule:nonzero;"/><path id="path130" d="M259.996,84.203c0.048,-1.992 -0.936,-2.521 -1.682,-2.521c-1.512,0 -2.544,0.721 -2.544,4.034c0,3.938 0.504,5.354 2.544,5.354c0.458,0 1.826,-0.482 1.754,-2.664l2.065,0c0.071,3.409 -2.473,4.27 -3.819,4.27c-2.568,0 -4.609,-0.768 -4.609,-6.118c0,-3.555 0.409,-6.483 4.609,-6.483c2.427,0 3.842,1.417 3.722,4.128l-2.04,0Z" style="fill:#1b458f;fill-rule:nonzero;"/><path id="path134" d="M270.605,80.315l1.968,0l0,9.601c0,0.842 0.048,1.683 0.12,2.522l-2.088,0l0,-1.464l-0.073,0c-0.647,1.104 -1.8,1.702 -3.072,1.702c-2.112,0 -3.266,-1.054 -3.266,-3.118l0,-9.243l1.97,0l0,8.401c0,1.466 0.672,2.451 2.064,2.451c1.057,0 2.377,-0.795 2.377,-2.811l0,-8.041Z" style="fill:#1b458f;fill-rule:nonzero;"/><rect id="path136" x="274.898" y="75.104" width="1.969" height="17.333" style="fill:#1b458f;fill-rule:nonzero;"/><path id="path140" d="M280.406,80.315l0,-2.328l1.969,-0.891l0,3.219l2.64,0l0,1.487l-2.64,0l0,7.42c0,0.768 0,1.752 1.8,1.752c0.146,0 0.456,-0.05 0.888,-0.096l0,1.513c-0.646,0.047 -1.296,0.192 -1.944,0.192c-1.872,0 -2.713,-0.768 -2.713,-2.161l0,-8.62l-1.992,0l0,-1.487l1.992,0Z" style="fill:#1b458f;fill-rule:nonzero;"/><path id="path144" d="M291.567,90.182l0.048,0l2.906,-9.866l2.136,0l-5.498,16.708l-2.041,0l1.368,-4.587l-4.104,-12.121l2.28,0l2.905,9.866Z" style="fill:#1b458f;fill-rule:nonzero;"/><path id="path148" d="M303.062,80.315l0,-2.355c0,-2.448 1.73,-2.926 3.482,-2.926c0.408,0 0.648,0.024 0.936,0.07l0,1.416c-2.09,-0.142 -2.448,0.746 -2.448,1.73l0,2.065l2.448,0l0,1.487l-2.448,0l0,10.636l-1.97,0l0,-10.636l-1.872,0l0,-1.487l1.872,0Z" style="fill:#1b458f;fill-rule:nonzero;"/><path id="path152" d="M315.819,85.716c0,-3.312 -1.032,-4.033 -2.546,-4.033c-1.512,0 -2.544,0.721 -2.544,4.033c0,3.937 0.504,5.355 2.544,5.355c2.042,0 2.546,-1.418 2.546,-5.355m-7.155,0.841c0,-3.554 0.408,-6.481 4.609,-6.481c4.202,0 4.61,2.927 4.61,6.481c0,5.352 -2.04,6.12 -4.61,6.12c-2.568,0 -4.609,-0.768 -4.609,-6.12" style="fill:#1b458f;fill-rule:nonzero;"/><path id="path156" d="M321.841,82.138l0.048,0c0.815,-1.847 1.824,-2.063 3.745,-2.063l0,2.039c-0.361,-0.047 -0.697,-0.119 -1.056,-0.119c-2.185,0 -2.737,1.656 -2.737,3.288l0,7.155l-1.969,0l0,-12.123l1.969,0l0,1.823Z" style="fill:#1b458f;fill-rule:nonzero;"/><path id="path160" d="M332.136,80.315l0,-2.328l1.97,-0.891l0,3.219l2.64,0l0,1.487l-2.64,0l0,7.42c0,0.768 0,1.752 1.8,1.752c0.145,0 0.456,-0.05 0.888,-0.096l0,1.513c-0.648,0.047 -1.296,0.192 -1.944,0.192c-1.872,0 -2.714,-0.768 -2.714,-2.161l0,-8.62l-1.992,0l0,-1.487l1.992,0Z" style="fill:#1b458f;fill-rule:nonzero;"/><path id="path164" d="M345.482,92.437l0,-8.21c0,-1.487 -0.479,-2.544 -2.16,-2.544c-1.97,0 -2.474,1.585 -2.474,3.624l0,7.13l-1.968,0l0,-17.333l1.968,0l0,6.771l0.098,0c0.79,-1.416 1.704,-1.799 3.288,-1.799c2.064,0 3.217,1.031 3.217,3.768l0,8.593l-1.969,0Z" style="fill:#1b458f;fill-rule:nonzero;"/><path id="path168" d="M356.307,85.523c0,-3.528 -0.984,-3.961 -2.424,-3.961c-1.249,0 -2.281,0.601 -2.305,3.961l4.729,0Zm-4.729,1.49c0,3.385 0.912,4.057 2.448,4.057c1.345,0 2.04,-1.08 2.113,-2.304l2.16,0c-0.023,2.687 -1.681,3.911 -4.225,3.911c-2.57,0 -4.61,-0.768 -4.61,-6.12c0,-3.555 0.408,-6.482 4.61,-6.482c3.457,0 4.321,1.896 4.321,5.904l0,1.034l-6.817,0Z" style="fill:#1b458f;fill-rule:nonzero;"/><path id="path172" d="M365.832,92.437l0,-17.333l8.594,0l0,1.921l-6.385,0l0,5.571l6.049,0l0,1.92l-6.049,0l0,7.921l-2.209,0Z" style="fill:#1b458f;fill-rule:nonzero;"/><path id="path176" d="M382.203,80.315l1.969,0l0,9.601c0,0.842 0.047,1.683 0.119,2.522l-2.088,0l0,-1.464l-0.073,0c-0.648,1.104 -1.799,1.702 -3.072,1.702c-2.112,0 -3.266,-1.054 -3.266,-3.118l0,-9.243l1.97,0l0,8.401c0,1.466 0.672,2.451 2.064,2.451c1.057,0 2.377,-0.795 2.377,-2.811l0,-8.041Z" style="fill:#1b458f;fill-rule:nonzero;"/><path id="path180" d="M387.804,80.315l0,-2.328l1.97,-0.891l0,3.219l2.64,0l0,1.487l-2.64,0l0,7.42c0,0.768 0,1.752 1.8,1.752c0.145,0 0.456,-0.05 0.888,-0.096l0,1.513c-0.647,0.047 -1.296,0.192 -1.944,0.192c-1.872,0 -2.714,-0.768 -2.714,-2.161l0,-8.62l-1.992,0l0,-1.487l1.992,0Z" style="fill:#1b458f;fill-rule:nonzero;"/><path id="path184" d="M400.502,80.315l1.97,0l0,9.601c0,0.842 0.046,1.683 0.118,2.522l-2.088,0l0,-1.464l-0.073,0c-0.648,1.104 -1.799,1.702 -3.072,1.702c-2.112,0 -3.265,-1.054 -3.265,-3.118l0,-9.243l1.969,0l0,8.401c0,1.466 0.672,2.451 2.064,2.451c1.057,0 2.377,-0.795 2.377,-2.811l0,-8.041Z" style="fill:#1b458f;fill-rule:nonzero;"/><path id="path188" d="M406.837,82.138l0.048,0c0.815,-1.847 1.824,-2.063 3.745,-2.063l0,2.039c-0.361,-0.047 -0.697,-0.119 -1.056,-0.119c-2.185,0 -2.737,1.656 -2.737,3.288l0,7.155l-1.969,0l0,-12.123l1.969,0l0,1.823Z" style="fill:#1b458f;fill-rule:nonzero;"/><path id="path192" d="M418.431,85.523c0,-3.528 -0.984,-3.961 -2.426,-3.961c-1.248,0 -2.28,0.601 -2.305,3.961l4.731,0Zm-4.731,1.49c0,3.385 0.913,4.057 2.449,4.057c1.346,0 2.04,-1.08 2.114,-2.304l2.16,0c-0.023,2.687 -1.682,3.911 -4.226,3.911c-2.569,0 -4.609,-0.768 -4.609,-6.12c0,-3.555 0.408,-6.482 4.609,-6.482c3.458,0 4.322,1.896 4.322,5.904l0,1.034l-6.819,0Z" style="fill:#1b458f;fill-rule:nonzero;"/></svg>